<?xml version="1.0" encoding="UTF-8"?>
<svg version="1.1" xmlns="http://www.w3.org/2000/svg" width="1024" height="1024">
<path d="M0 0 C337.92 0 675.84 0 1024 0 C1024 337.92 1024 675.84 1024 1024 C686.08 1024 348.16 1024 0 1024 C0 686.08 0 348.16 0 0 Z " fill="#444AF1" transform="translate(0,0)"/>
<path d="M0 0 C283.33098592 0 283.33098592 0 322 7 C323.07773682 7.19384277 323.07773682 7.19384277 324.17724609 7.39160156 C344.31166482 11.21556055 365.12314767 20.13197751 383 30 C384.19138957 30.639354 385.38279598 31.27867663 386.57421875 31.91796875 C429.89417095 55.55242392 461.32683913 95.72539764 476.1875 142.5625 C476.8030388 144.7050989 477.40709109 146.85102883 478 149 C478.32613281 150.09054688 478.65226562 151.18109375 478.98828125 152.3046875 C491.16657841 196.03370819 489.93926258 248.1040106 475 291 C474.72929688 291.80630859 474.45859375 292.61261719 474.1796875 293.44335938 C470.35783181 304.77498291 465.73776691 315.50900564 460 326 C459.66274902 326.62326172 459.32549805 327.24652344 458.97802734 327.88867188 C435.56635549 370.600806 393.7843285 397.03903407 348.6875 412.25 C347.64940186 412.60118896 347.64940186 412.60118896 346.59033203 412.95947266 C307.84689395 425.6555253 266.87706893 426.47345385 226.54878998 426.30384064 C221.72356153 426.2864333 216.89838034 426.28593415 212.07312012 426.28381348 C198.06955195 426.2682279 184.06602296 426.22634488 170.0625 426.1875 C138.691875 426.125625 107.32125 426.06375 75 426 C75 519.72 75 613.44 75 710 C50.25 710 25.5 710 0 710 C0 475.7 0 241.4 0 0 Z " fill="#FEFEFE" transform="translate(215,60)"/>
<path d="M0 0 C46.4990625 -0.1546875 46.4990625 -0.1546875 93.9375 -0.3125 C103.66081787 -0.35802002 113.38413574 -0.40354004 123.40209961 -0.45043945 C135.44055176 -0.47302246 135.44055176 -0.47302246 141.10816956 -0.47721863 C144.99686988 -0.48180484 148.88521546 -0.50024517 152.77381897 -0.52787781 C182.44006616 -0.72928505 212.8688348 -0.72743742 241 10 C242.27445075 10.42536949 243.5505663 10.84577684 244.828125 11.26171875 C259.87525734 16.31199935 274.15244238 24.42182356 286 35 C287.2375 36.05960938 287.2375 36.05960938 288.5 37.140625 C312.06406697 57.68734193 327.9601676 87.12706441 333 118 C333.20085205 119.14033691 333.20085205 119.14033691 333.40576172 120.30371094 C338.53776357 149.87189259 337.46647482 180.67330209 327 209 C326.60941406 210.10988281 326.21882813 211.21976563 325.81640625 212.36328125 C313.92215163 244.92624062 291.24237288 269.02647308 260.00634766 284.09326172 C253.84870733 286.87611353 247.43621462 288.96792158 241 291 C239.81535156 291.38027344 238.63070312 291.76054687 237.41015625 292.15234375 C215.95677977 298.66453707 193.61509151 300.32254923 171.30981445 300.22705078 C169.39515027 300.22643613 167.48048563 300.22670846 165.56582165 300.2277813 C160.5011954 300.22822741 155.43666628 300.21675119 150.37206268 300.20256042 C145.59581746 300.19105481 140.81959425 300.19062796 136.04333496 300.18920898 C122.13304409 300.17877101 108.22277077 300.15084851 94.3125 300.125 C63.189375 300.08375 32.06625 300.0425 0 300 C0 201 0 102 0 0 Z " fill="#505DEE" transform="translate(290,123)"/>
<path d="M0 0 C16.18814045 13.74753185 24.06122484 30.09511495 25.81739044 51.15266418 C26.39045005 60.08808449 26.27927931 69.06012686 26.27439499 78.00980377 C26.27341477 81.98274411 26.28613383 85.95551457 26.30337524 89.92840576 C26.34983776 101.21152254 26.37430976 112.49462345 26.38085938 123.77783203 C26.38464861 130.04233702 26.40297305 136.30664508 26.43595374 142.57106566 C26.45259246 145.86250984 26.45975852 149.15352535 26.45301437 152.44501495 C26.41735543 170.69940509 27.02390066 188.68467208 33.41946983 205.98466873 C34 208 34 208 34 212 C20.47 212 6.94 212 -7 212 C-9.82242962 203.53271113 -11.14913858 197.65003763 -11 189 C-12.01707031 189.85271484 -12.01707031 189.85271484 -13.0546875 190.72265625 C-36.55209679 210.21704429 -58.38913734 217.76144948 -89 216 C-108.58609987 213.91005465 -126.10157358 203.57223557 -138.89453125 188.83203125 C-147.69935219 176.98881199 -151.58048232 163.71397623 -151.375 149.0625 C-151.36412354 148.00562988 -151.35324707 146.94875977 -151.34204102 145.85986328 C-150.99152143 128.73598941 -145.18078114 113.90714469 -133.02734375 101.7578125 C-106.8652392 77.13162684 -71.74015902 75.62814903 -37.875 75.875 C-35.45182665 75.88505735 -33.02864922 75.89417829 -30.60546875 75.90234375 C-24.7368885 75.92412155 -18.868464 75.95737755 -13 76 C-13.05256868 71.58241851 -13.14780295 67.16669003 -13.25 62.75 C-13.26417969 61.51507812 -13.27835938 60.28015625 -13.29296875 59.0078125 C-13.63296128 46.08809649 -16.46758002 35.62103668 -25.66015625 26.3203125 C-35.40748199 17.39451536 -45.92884542 15.6509933 -58.75 15.6875 C-59.86632812 15.67138672 -60.98265625 15.65527344 -62.1328125 15.63867188 C-75.43839773 15.63091804 -86.55872935 19.35269968 -97.3125 27.25 C-104.19514299 34.29270446 -106.0348411 40.17420552 -108 50 C-120.54 50 -133.08 50 -146 50 C-146 33.63697579 -139.94763561 21.11802342 -128.875 9.25 C-96.95653037 -20.55907511 -35.56290087 -28.07321777 0 0 Z " fill="#FDFDFE" transform="translate(475,556)"/>
<path d="M0 0 C12.54 0 25.08 0 38 0 C38 18.15 38 36.3 38 55 C51.86 55 65.72 55 80 55 C80 64.57 80 74.14 80 84 C66.14 84 52.28 84 38 84 C38.06294072 102.86343858 38.13817574 121.72669824 38.23571491 140.5899868 C38.28061565 149.34920419 38.32004342 158.10838145 38.34643555 166.86767578 C38.36946207 174.5052947 38.40291184 182.142786 38.44870156 189.7803036 C38.47257122 193.82158633 38.49134087 197.86274316 38.49761391 201.9040947 C38.50369324 205.71431443 38.52379482 209.52421225 38.55427551 213.33431244 C38.56301037 214.72656386 38.56678784 216.11885742 38.56500816 217.5111351 C38.55712344 226.53231531 38.67645239 235.84805248 44.1875 243.4375 C51.18098907 249.8093456 58.72660609 249.36654348 67.68359375 249.203125 C72.13554911 248.99362122 76.57037734 248.4921803 81 248 C81 258.23 81 268.46 81 279 C63.62228993 284.79257002 42.34042742 285.92317169 25.5625 277.625 C14.92138908 272.12890858 7.93194189 264.31019229 3.91053486 252.93871403 C0.46251963 241.81038586 -0.43508801 231.04127184 -0.34057617 219.43579102 C-0.33972716 217.94591286 -0.34021038 216.45603345 -0.34190369 214.96615601 C-0.34275437 210.97325615 -0.32528143 206.98063403 -0.30418181 202.98779798 C-0.28525796 198.79583014 -0.28365233 194.60385394 -0.28010559 190.41184998 C-0.27083079 182.49682031 -0.24627975 174.58191693 -0.21605712 166.66694254 C-0.18236982 157.64622798 -0.1659913 148.62550697 -0.15097082 139.60474503 C-0.11972536 121.06974416 -0.0647714 102.53491612 0 84 C-13.53 84 -27.06 84 -41 84 C-41 74.43 -41 64.86 -41 55 C-27.47 55 -13.94 55 0 55 C0 36.85 0 18.7 0 0 Z " fill="#FEFEFE" transform="translate(729,489)"/>
<path d="M0 0 C8.91 0 17.82 0 27 0 C27 50.82 27 101.64 27 154 C20.07 154 13.14 154 6 154 C5.97699273 145.44306632 5.95883019 136.88615848 5.94818783 128.3292017 C5.94306847 124.35169854 5.93618298 120.37421841 5.92456055 116.39672852 C5.87304048 98.28841967 6.02355766 80.2147606 6.64524841 62.1162262 C6.96469987 52.73757995 7.12893532 43.38362627 7 34 C6.78274765 34.54646179 6.5654953 35.09292358 6.34165955 35.65594482 C-3.19565565 59.63840094 -12.74683122 83.60989827 -22.73510742 107.40869141 C-23.3248032 108.81408726 -23.91440364 110.21952312 -24.50390625 111.625 C-24.79031479 112.30783051 -25.07672333 112.99066101 -25.37181091 113.69418335 C-29.34627229 123.1904438 -33.19878606 132.73677283 -37.05444336 142.28173828 C-37.44382835 143.24478882 -37.44382835 143.24478882 -37.84107971 144.22729492 C-38.53868922 145.95340506 -39.23496916 147.68005238 -39.93115234 149.40673828 C-40.57104637 150.95926327 -41.24902754 152.49805507 -42 154 C-47.28 154 -52.56 154 -58 154 C-58.49701416 152.76999268 -58.99402832 151.53998535 -59.50610352 150.27270508 C-69.39835422 125.79243636 -79.29760371 101.31504976 -89.22241211 76.84796143 C-92.62133636 68.46875214 -96.0183345 60.08876212 -99.41540527 51.70880127 C-101.0255767 47.73683356 -102.63583706 43.7649019 -104.24609375 39.79296875 C-104.78442428 38.46508807 -105.3227544 37.13720723 -105.86108398 35.80932617 C-106.42484741 34.41870972 -106.42484741 34.41870972 -107 33 C-106.96970703 33.89412598 -106.93941406 34.78825195 -106.90820312 35.70947266 C-106.03093167 63.03647841 -105.91119423 90.34922815 -105.9375 117.6875 C-105.93835602 118.58340096 -105.93921204 119.47930191 -105.94009399 120.40235138 C-105.95158081 131.6015898 -105.9725644 142.80078997 -106 154 C-112.6 154 -119.2 154 -126 154 C-126 103.51 -126 53.02 -126 1 C-117.09 1 -108.18 1 -99 1 C-98.26177002 2.84819336 -97.52354004 4.69638672 -96.76293945 6.60058594 C-93.28077597 15.31758344 -89.79703678 24.03395095 -86.3125 32.75 C-85.99791336 33.53689461 -85.68332672 34.32378922 -85.35920715 35.13452911 C-73.63872688 64.44980315 -61.85168538 93.73749438 -50 123 C-47.27669702 117.69371691 -44.84297565 112.38217454 -42.65625 106.8359375 C-42.33812347 106.03779129 -42.01999695 105.23964508 -41.69223022 104.41731262 C-40.62498541 101.73779044 -39.56257408 99.05637742 -38.5 96.375 C-37.73753849 94.45858241 -36.97466727 92.54232779 -36.21142578 90.6262207 C-34.94412442 87.44442755 -33.67715808 84.26250382 -32.41140747 81.08009338 C-28.48171131 71.20088006 -24.53563171 61.3282632 -20.5859375 51.45703125 C-20.10884968 50.26466103 -20.10884968 50.26466103 -19.62212372 49.04820251 C-18.01489656 45.03145183 -16.40750947 41.01476517 -14.80004883 36.99810791 C-11.983363 29.95967645 -9.16803875 22.92070036 -6.35264969 15.88175011 C-4.99670972 12.4917018 -3.64068638 9.10168685 -2.28466797 5.71166992 C-1.15375732 2.88439331 -1.15375732 2.88439331 0 0 Z " fill="#FBFCFE" transform="translate(527,799)"/>
<path d="M0 0 C0.74314453 -0.01224609 1.48628906 -0.02449219 2.25195312 -0.03710938 C8.34143612 -0.05284447 12.96530847 0.94306169 19.1875 2.1875 C19.1875 14.0675 19.1875 25.9475 19.1875 38.1875 C3.5625 37.875 3.5625 37.875 -1.27197266 37.73706055 C-16.89500725 37.58756244 -29.50369981 42.08710578 -40.90625 53.234375 C-42.67615339 55.16926939 -44.2895009 57.052201 -45.8125 59.1875 C-46.49290344 60.06378555 -47.17330688 60.94007111 -47.87432861 61.84291077 C-51.25106342 67.86822895 -50.38263867 75.145361 -50.35839844 81.85327148 C-50.3671399 83.45035303 -50.37762769 85.04742582 -50.38972473 86.64448547 C-50.41753535 90.96631716 -50.42099051 95.28786237 -50.42000484 99.60977054 C-50.4231382 104.1315186 -50.44876521 108.65313845 -50.47198486 113.17481995 C-50.51251603 121.73108285 -50.53287879 130.28726959 -50.54595876 138.84361368 C-50.56183857 148.58731063 -50.60025834 158.33087816 -50.64055204 168.07449996 C-50.72291163 188.11214884 -50.77405312 208.14971544 -50.8125 228.1875 C-63.6825 228.1875 -76.5525 228.1875 -89.8125 228.1875 C-89.8125 154.2675 -89.8125 80.3475 -89.8125 4.1875 C-77.2725 4.1875 -64.7325 4.1875 -51.8125 4.1875 C-51.3175 16.0675 -51.3175 16.0675 -50.8125 28.1875 C-49.69875 26.5375 -48.585 24.8875 -47.4375 23.1875 C-39.25698619 11.98781589 -26.54896501 3.01498341 -12.69140625 0.65625 C-8.4296065 0.14122888 -4.28701919 0.00366099 0 0 Z " fill="#FCFCFE" transform="translate(650.8125,539.8125)"/>
<path d="M0 0 C78.66740088 0 78.66740088 0 92.98828125 12.7734375 C103.1287156 23.41329367 104.57045594 35.66222877 104.33203125 49.640625 C103.88132901 60.24232867 99.89395342 68.15736022 92.48046875 75.76953125 C87.85275569 79.93082914 82.95596957 84.01467681 77 86 C77.57422596 90.79756527 79.75410194 94.51246462 82.125 98.625 C83.0317582 100.22627483 83.93797219 101.8278579 84.84375 103.4296875 C85.34390625 104.30979492 85.8440625 105.18990234 86.359375 106.09667969 C89.15240751 111.03934973 91.8940711 116.0105866 94.64370728 120.97747803 C100.11930585 130.8964214 100.11930585 130.8964214 105.73828125 140.734375 C106.11968262 141.38954102 106.50108398 142.04470703 106.89404297 142.71972656 C107.84856903 144.34827219 108.81248167 145.97130677 109.77734375 147.59375 C111 150 111 150 111 153 C103.74 153 96.48 153 89 153 C88.27296875 151.59492187 87.5459375 150.18984375 86.796875 148.7421875 C81.54017854 138.61007277 76.23306928 128.51171755 70.75 118.5 C70.25435547 117.59459473 69.75871094 116.68918945 69.24804688 115.75634766 C68.2866236 114.00088604 67.3250408 112.24551178 66.36328125 110.49023438 C64.31515126 106.74902272 62.27463816 103.00397815 60.25 99.25 C59.91452148 98.63576172 59.57904297 98.02152344 59.23339844 97.38867188 C57 93.23026227 57 93.23026227 57 91 C44.79 91 32.58 91 20 91 C20 111.46 20 131.92 20 153 C13.4 153 6.8 153 0 153 C0 102.51 0 52.02 0 0 Z " fill="#FDFDFE" transform="translate(712,800)"/>
<path d="M0 0 C31.68 0 63.36 0 96 0 C96 5.28 96 10.56 96 16 C70.92 16 45.84 16 20 16 C20 32.17 20 48.34 20 65 C42.11 65 64.22 65 87 65 C87 70.61 87 76.22 87 82 C64.89 82 42.78 82 20 82 C20 100.15 20 118.3 20 137 C45.41 137 70.82 137 97 137 C97 142.28 97 147.56 97 153 C64.99 153 32.98 153 0 153 C0 102.51 0 52.02 0 0 Z " fill="#FDFDFE" transform="translate(589,800)"/>
<path d="M0 0 C1.85872274 0.00503015 3.71744681 0.00959035 5.57617188 0.01367188 C10.07164832 0.02454565 14.56705887 0.04172477 19.0625 0.0625 C19.24129132 6.55418291 19.3631125 13.04522194 19.44702148 19.53881836 C19.48203159 21.74348678 19.52965664 23.94799495 19.59057617 26.15209961 C20.18925398 48.38367306 20.18925398 48.38367306 13.88745117 56.16918945 C12.98410034 57.10637817 12.98410034 57.10637817 12.0625 58.0625 C11.27746094 58.97386719 10.49242187 59.88523437 9.68359375 60.82421875 C-4.85285091 73.64437477 -19.84466234 79.31295333 -39.1875 79.5625 C-40.18120605 79.58119141 -41.17491211 79.59988281 -42.19873047 79.61914062 C-53.91654277 79.51800764 -63.23748795 75.52933297 -71.62109375 67.4375 C-79.15326309 59.32304325 -81.27176129 50.00532756 -81.15234375 39.19140625 C-80.47828093 29.37460042 -76.40525325 21.068624 -69.25 14.375 C-62.12850598 8.58057406 -54.50733408 5.73393926 -45.75 3.3125 C-44.63854614 2.99611572 -44.63854614 2.99611572 -43.50463867 2.67333984 C-29.45179804 -0.96716865 -14.40509651 -0.06862653 0 0 Z " fill="#475FF0" transform="translate(442.9375,658.9375)"/>
<path d="M0 0 C39.27 0 78.54 0 119 0 C119 5.61 119 11.22 119 17 C102.83 17 86.66 17 70 17 C70 62.21 70 107.42 70 154 C63.07 154 56.14 154 49 154 C49 108.79 49 63.58 49 17 C32.83 17 16.66 17 0 17 C0 11.39 0 5.78 0 0 Z " fill="#F7F8FE" transform="translate(200,799)"/>
<path d="M0 0 C5.89875 -0.04125 11.7975 -0.0825 17.875 -0.125 C19.71562012 -0.14320801 21.55624023 -0.16141602 23.45263672 -0.18017578 C35.67298047 -0.25240447 47.17596428 -0.30224017 57 8 C63.87824864 16.97102205 65.22005988 25.99210552 64 37 C61.56911789 45.81478747 55.52386045 51.23028952 47.9375 55.875 C41.80894539 58.22210602 35.47240395 58.13982983 29.00390625 58.09765625 C27.89396301 58.09614563 27.89396301 58.09614563 26.76159668 58.09460449 C24.02854842 58.08941897 21.29552246 58.07545815 18.5625 58.0625 C12.436875 58.041875 6.31125 58.02125 0 58 C0 38.86 0 19.72 0 0 Z " fill="#3A30F9" transform="translate(732,816)"/>
<path d="M0 0 C6.93 0 13.86 0 21 0 C21 50.82 21 101.64 21 154 C14.07 154 7.14 154 0 154 C0 103.18 0 52.36 0 0 Z " fill="#F8F9FE" transform="translate(343,799)"/>
<path d="M0 0 C7.4917448 5.13791958 11.29450616 9.66858632 13.3125 18.5859375 C14.39963025 27.46416784 12.66322959 34.64262585 7.65234375 42.03515625 C2.14416713 48.87796293 -4.19604575 52.8528709 -12.96484375 54.0234375 C-21.5295921 54.34324141 -27.98819136 52.79200499 -34.5 47.1484375 C-35.221875 46.3028125 -35.94375 45.4571875 -36.6875 44.5859375 C-37.450625 43.6990625 -38.21375 42.8121875 -39 41.8984375 C-40.6875 39.5859375 -40.6875 39.5859375 -40.6875 37.5859375 C-41.6775 37.2559375 -42.6675 36.9259375 -43.6875 36.5859375 C-46.03043577 29.5571302 -45.94166615 19.41671081 -43.0625 12.5234375 C-38.79477942 4.60848054 -33.02526507 -1.18497908 -24.37109375 -3.828125 C-15.1567314 -5.83999451 -8.02478398 -4.96883426 0 0 Z " fill="#FCFCFE" transform="translate(387.6875,228.4140625)"/>
<path d="M0 0 C6.05852841 3.9920536 10.13004034 9.130746 12.9375 15.8125 C14.37210811 26.2439915 13.29407304 35.14691538 6.9375 43.8125 C1.4482854 49.60667097 -6.41492783 53.47189778 -14.3671875 54.0546875 C-17.27805804 54.06153661 -20.15767555 53.99217986 -23.0625 53.8125 C-23.0625 53.1525 -23.0625 52.4925 -23.0625 51.8125 C-24.0525 51.791875 -25.0425 51.77125 -26.0625 51.75 C-32.28798182 50.81932191 -35.89415474 46.23404906 -39.90234375 41.7578125 C-43.92417015 36.2881286 -44.61733135 31.29212452 -44.6875 24.6875 C-44.69845703 23.93557373 -44.70941406 23.18364746 -44.72070312 22.40893555 C-44.53025111 14.9131711 -41.69175486 8.86810862 -36.375 3.5625 C-26.04373505 -6.10284548 -12.27751721 -7.02893641 0 0 Z " fill="#FCFCFE" transform="translate(546.0625,221.1875)"/>
<path d="M0 0 C2.91004668 1.41640661 5.27345936 3.3069076 7.75 5.375 C13.98857154 10.38110425 18.64714042 13.57483837 26.91796875 13.3828125 C29.26976109 13.14171274 29.26976109 13.14171274 31.375 10.8125 C32.42083456 9.00240172 33.46281734 7.19006965 34.5 5.375 C36.13462334 2.78684637 37.41700315 1.61551393 40 0 C44.0605564 -0.80407057 48.22072831 -0.93064111 51.94921875 1.01953125 C55.30137557 3.70612667 56.71347871 5.95808248 57.30859375 10.19921875 C57.68130091 17.39359634 55.72827114 20.75291607 51 26 C50.401875 26.86625 49.80375 27.7325 49.1875 28.625 C43.26884281 35.05097066 37.32297391 37.7316672 28.66796875 38.16796875 C11.87690192 38.26219471 1.40072308 33.78763244 -10.875 22.3125 C-11.57625 21.549375 -12.2775 20.78625 -13 20 C-13.598125 19.4225 -14.19625 18.845 -14.8125 18.25 C-16.74380779 14.59067997 -16.76709302 11.03072514 -16 7 C-12.22988246 0.26964203 -7.27568211 -1.11278592 0 0 Z " fill="#FBFBFE" transform="translate(436,291)"/>
</svg>
